#!OML:ASF H:\Terrain\Patient Classification 1\Animal1\Tuesday\Animal1.ASF
:FULLY-SPECIFIED
:DEGREES
3534
root 15.2004 17.3192 9.1755 -875.57 -74.7322 168.577
lowerback 1.78316 -1.14909 -3.18765
upperback -6.67308 -2.59233 -6.27822
thorax -8.21271 -1.49411 -4.61372
lowerneck 1.60415 3.20981 -7.49738
upperneck 15.8521 1.69721 16.5872
head 4.08856 0.922252 6.5031
rclavicle -4.54347e-014 -9.22361e-014
rhumerus -11.5872 -4.44688 14.3151
rradius 34.9975
rwrist -4.57504
rhand 6.25071 25.1533
rfingers 7.12502
rthumb 31.5622 -2.13951
lclavicle -4.54347e-014 -9.22361e-014
lhumerus -31.4871 27.2667 1.57025
lradius 59.2175
lwrist -33.3367
lhand 10.7301 30.8654
lfingers 7.12502
lthumb 35.8185 57.2264
rfemur -27.0986 11.1101 32.6436
rtibia 34.7422
rfoot 11.1965 0.51957
rtoes -36.5493
lfemur -37.8018 -9.14936 -15.5762
ltibia 62.2563
lfoot 10.6711 4.66936
ltoes 21.6898
3535
root 15.1686 17.2657 9.17533 -876.669 -73.9038 169.846
lowerback 1.77638 -1.18158 -3.01449
upperback -6.61536 -2.62359 -6.29904
thorax -8.1557 -1.52206 -4.7302
lowerneck 1.84298 3.22481 -7.28379
upperneck 15.4106 1.77832 16.455
head 3.91299 0.950218 6.40525
rclavicle -3.14515e-014 -4.45278e-014
rhumerus -11.6177 -4.48999 13.8705
rradius 34.7876
rwrist -4.48538
rhand 6.26634 24.9034
rfingers 7.12502
rthumb 31.5771 -2.38647
lclavicle -3.14515e-014 -4.45278e-014
lhumerus -31.6208 27.1916 1.34738
lradius 59.2841
lwrist -33.2103
lhand 10.8772 31.1178
lfingers 7.12502
lthumb 35.9579 57.4446
rfemur -27.0119 10.8168 33.0017
rtibia 34.7622
rfoot 10.4326 -0.328601
rtoes -34.9665
lfemur -38.8294 -9.99675 -15.0364
ltibia 62.0176
lfoot 9.87885 5.92194
ltoes 19.8918
3536
root 15.1323 17.2397 9.16485 -877.349 -73.0386 170.611
lowerback 1.79926 -1.18133 -2.97517
upperback -6.53394 -2.6191 -6.32829
thorax -8.08315 -1.52335 -4.78258
lowerneck 2.36056 3.24771 -6.98805
upperneck 14.7191 1.91263 16.1831
head 3.61501 0.988201 6.23757
rclavicle 3.77691e-015 5.725e-014
rhumerus -11.7017 -4.13798 13.6816
rradius 34.5915
rwrist -4.75635
rhand 7.07847 24.7668
rfingers 7.12502
rthumb 32.3504 -2.36824
lclavicle 3.77691e-015 5.725e-014
lhumerus -31.7959 27.2662 1.21627
lradius 59.4361
lwrist -33.1368
lhand 11.144 31.2231
lfingers 7.12502
lthumb 36.2106 57.4876
rfemur -26.7976 10.7829 33.1018
rtibia 34.7686
rfoot 9.8242 1.1927
rtoes -36.4792
lfemur -39.6273 -10.7759 -14.6363
ltibia 61.4957
lfoot 8.8433 6.17246
ltoes 24.0993
3537
root 15.0892 17.2321 9.15193 -878.034 -72.2391 171.275
lowerback 1.95712 -1.14281 -2.91834
upperback -6.44746 -2.56676 -6.3472
thorax -8.08108 -1.49986 -4.83601
lowerneck 2.74054 3.17445 -6.89683
upperneck 14.1076 1.90435 16.0104
head 3.37677 0.958101 6.14341
rclavicle 1.63997e-014 -1.74931e-014
rhumerus -11.9609 -3.10025 13.6421
rradius 34.5775
rwrist -5.66108
rhand 7.51974 24.6679
rfingers 7.12502
rthumb 32.7703 -2.38055
lclavicle 1.63997e-014 -1.74931e-014
lhumerus -31.7932 27.419 1.26239
lradius 59.5184
lwrist -33.1959
lhand 11.1364 30.9597
lfingers 7.12502
lthumb 36.2034 57.226
rfemur -26.5419 10.5693 33.2206
rtibia 34.9263
rfoot 8.68652 2.84996
rtoes -37.5714
lfemur -40.2073 -11.6726 -14.2699
ltibia 60.7016
lfoot 7.99273 7.02082
ltoes 24.9855
3538
root 15.0462 17.2343 9.13694 -878.939 -71.4404 172.164
lowerback 2.14858 -1.12809 -2.84088
upperback -6.39843 -2.54531 -6.31328
thorax -8.13921 -1.49042 -4.84159
lowerneck 2.38021 3.17017 -7.38482
upperneck 14.3065 1.85038 16.3725
head 3.48546 0.937954 6.3563
rclavicle 1.98785e-016 4.77083e-014
rhumerus -12.0798 -2.44498 13.4595
rradius 34.5361
rwrist -6.10802
rhand 6.76323 25.375
rfingers 7.12502
rthumb 32.0503 -1.82088
lclavicle 1.98785e-016 4.77083e-014
lhumerus -31.7942 27.9567 1.29411
lradius 59.4703
lwrist -33.7521
lhand 10.9699 30.7537
lfingers 7.12502
lthumb 36.0456 57.059
rfemur -26.303 10.9291 33.2616
rtibia 35.0577
rfoot 8.5067 2.67289
rtoes -36.266
lfemur -40.637 -12.5351 -13.8136
ltibia 59.618
lfoot 7.29543 8.18308
ltoes 27.8416
